<svg id="a040b553-adbc-4d39-9975-5cd87dc687b0" data-name="Calque 1" xmlns="http://www.w3.org/2000/svg" viewBox="0 0 264.11 77.64"><defs><style>.a5a11b6a-b929-4f46-bc39-1aaeb3c94c73{fill:#3a3a3a;}.bf64524b-1b21-475c-883a-b7bf1360342a{fill:#383838;}.bdd7101b-1c89-41a1-be84-57fe3e80f779{fill:#006d6b;}</style></defs><path class="a5a11b6a-b929-4f46-bc39-1aaeb3c94c73" d="M90.53,28.77a7.11,7.11,0,0,1-2,5.28,6,6,0,0,1-4.28,1.56,5.92,5.92,0,0,1-4.8-2.12,7.16,7.16,0,0,1-1.47-3.56,51.84,51.84,0,0,1-.33-7,51.84,51.84,0,0,1,.33-7,7.2,7.2,0,0,1,1.47-3.56,6,6,0,0,1,4.8-2.12,6.1,6.1,0,0,1,4.35,1.6,7,7,0,0,1,2,5.21h-3.9a4.51,4.51,0,0,0-.59-2.4,2,2,0,0,0-1.84-.9,2,2,0,0,0-1.84.94,6.33,6.33,0,0,0-.7,2.66c-.11,1.21-.17,3.06-.17,5.54s.06,4.33.17,5.55a6.32,6.32,0,0,0,.7,2.65,2,2,0,0,0,1.84.94A2,2,0,0,0,86,31.2a4.8,4.8,0,0,0,.59-2.43Z"/><path class="a5a11b6a-b929-4f46-bc39-1aaeb3c94c73" d="M114.26,35.33H110V31.06h4.27Z"/><path class="a5a11b6a-b929-4f46-bc39-1aaeb3c94c73" d="M147.18,18.13c0,2.6-.51,4.5-1.51,5.7s-2.63,1.81-4.85,1.81h-2.33v9.69H134.6V10.59h6.22q3.33,0,4.85,1.81C146.67,13.6,147.18,15.51,147.18,18.13Zm-4.45,3a6.36,6.36,0,0,0,.56-3,6.43,6.43,0,0,0-.56-3,2.13,2.13,0,0,0-2-1h-2.19v8h2.19A2.14,2.14,0,0,0,142.73,21.14Z"/><path class="a5a11b6a-b929-4f46-bc39-1aaeb3c94c73" d="M167.89,35.33h-4.27V31.06h4.27Z"/><path class="a5a11b6a-b929-4f46-bc39-1aaeb3c94c73" d="M200.49,28.73a7,7,0,0,1-1.72,5.09,6,6,0,0,1-4.6,1.79,5.91,5.91,0,0,1-4.8-2.12,7.07,7.07,0,0,1-1.47-3.56,49.8,49.8,0,0,1-.34-7,49.8,49.8,0,0,1,.34-7,7.11,7.11,0,0,1,1.47-3.56,6.57,6.57,0,0,1,9.21-.45,7.41,7.41,0,0,1,1.91,5.18H196.6c0-2.23-.86-3.34-2.43-3.34a2,2,0,0,0-1.84.94,6.33,6.33,0,0,0-.7,2.66c-.12,1.21-.17,3.06-.17,5.54s0,4.33.17,5.55a6.32,6.32,0,0,0,.7,2.65,2,2,0,0,0,1.84.94,2,2,0,0,0,1.82-.88,3.91,3.91,0,0,0,.61-2.28V25.08h-2.43v-3.2h6.32Z"/><path class="a5a11b6a-b929-4f46-bc39-1aaeb3c94c73" d="M224.51,35.33h-4.28V31.06h4.28Z"/><path class="a5a11b6a-b929-4f46-bc39-1aaeb3c94c73" d="M255.23,35.33H244.84V10.59h10.39V14.1h-6.5v7h5.6v3.51h-5.6v7.19h6.5Z"/><path class="bf64524b-1b21-475c-883a-b7bf1360342a" d="M82,47.66a2.9,2.9,0,0,1-.84,2.16,2.45,2.45,0,0,1-1.74.64,2.4,2.4,0,0,1-2-.87,2.86,2.86,0,0,1-.61-1.46,21.18,21.18,0,0,1-.13-2.84,21.35,21.35,0,0,1,.13-2.85A2.86,2.86,0,0,1,77.42,41a2.4,2.4,0,0,1,2-.87,2.51,2.51,0,0,1,1.77.65A2.89,2.89,0,0,1,82,42.9H80.37a1.91,1.91,0,0,0-.24-1,.94.94,0,0,0-1.51,0A2.64,2.64,0,0,0,78.34,43c0,.5-.07,1.26-.07,2.27s0,1.77.07,2.26a2.7,2.7,0,0,0,.28,1.09.84.84,0,0,0,.76.38.8.8,0,0,0,.75-.37,2,2,0,0,0,.24-1Z"/><path class="bf64524b-1b21-475c-883a-b7bf1360342a" d="M90.31,50.34H86.06V40.23h1.59v8.68h2.66Z"/><path class="bf64524b-1b21-475c-883a-b7bf1360342a" d="M100.33,50.34H98.67l-.41-2H95.92l-.4,2H93.84l2.49-10.11h1.55ZM98,46.91l-.86-4.23-.87,4.23Z"/><path class="bf64524b-1b21-475c-883a-b7bf1360342a" d="M109,47.55a3,3,0,0,1-.65,2.23,2.76,2.76,0,0,1-2,.66,2.65,2.65,0,0,1-2-.66,3,3,0,0,1-.66-2.18h1.59a1.76,1.76,0,0,0,.29,1.14.93.93,0,0,0,.74.27,1,1,0,0,0,.76-.28,1.78,1.78,0,0,0,.27-1.13,2.36,2.36,0,0,0-.18-1.11,1.48,1.48,0,0,0-.77-.55l-1.21-.49a2.22,2.22,0,0,1-1.09-.86,3.47,3.47,0,0,1-.31-1.69,2.72,2.72,0,0,1,.82-2.14,2.89,2.89,0,0,1,3.55,0,3,3,0,0,1,.71,2.2h-1.59a1.83,1.83,0,0,0-.24-1.08.83.83,0,0,0-.71-.3.88.88,0,0,0-.68.29,1.5,1.5,0,0,0-.27,1,1.78,1.78,0,0,0,.16.89,1.36,1.36,0,0,0,.68.47l1.19.49a2.25,2.25,0,0,1,1.21,1A4.07,4.07,0,0,1,109,47.55Z"/><path class="bf64524b-1b21-475c-883a-b7bf1360342a" d="M118,47.55a3,3,0,0,1-.66,2.23,2.74,2.74,0,0,1-2,.66,2.69,2.69,0,0,1-2-.66,3,3,0,0,1-.65-2.18h1.59a1.76,1.76,0,0,0,.28,1.14,1,1,0,0,0,.74.27,1,1,0,0,0,.77-.28,1.78,1.78,0,0,0,.27-1.13,2.36,2.36,0,0,0-.18-1.11,1.57,1.57,0,0,0-.77-.55l-1.21-.49a2.18,2.18,0,0,1-1.09-.86,3.46,3.46,0,0,1-.32-1.69,2.73,2.73,0,0,1,.83-2.14,2.51,2.51,0,0,1,1.73-.61,2.54,2.54,0,0,1,1.82.61A3,3,0,0,1,118,43h-1.59a1.75,1.75,0,0,0-.25-1.08.82.82,0,0,0-.71-.3.88.88,0,0,0-.68.29,1.5,1.5,0,0,0-.27,1,1.78,1.78,0,0,0,.16.89,1.36,1.36,0,0,0,.68.47l1.19.49a2.28,2.28,0,0,1,1.22,1A4.21,4.21,0,0,1,118,47.55Z"/><path class="bf64524b-1b21-475c-883a-b7bf1360342a" d="M126.44,50.34H122.2V40.23h4.24v1.44h-2.65v2.87h2.28V46h-2.28v2.94h2.65Z"/><path class="bf64524b-1b21-475c-883a-b7bf1360342a" d="M135.47,47.55a3.09,3.09,0,0,1-.65,2.23,2.77,2.77,0,0,1-2,.66,2.64,2.64,0,0,1-2-.66,3,3,0,0,1-.66-2.18h1.59a1.76,1.76,0,0,0,.29,1.14.92.92,0,0,0,.73.27,1,1,0,0,0,.77-.28,1.78,1.78,0,0,0,.27-1.13,2.36,2.36,0,0,0-.18-1.11,1.53,1.53,0,0,0-.77-.55l-1.21-.49a2.22,2.22,0,0,1-1.09-.86,3.47,3.47,0,0,1-.31-1.69,2.72,2.72,0,0,1,.82-2.14,2.89,2.89,0,0,1,3.55,0,3,3,0,0,1,.71,2.2h-1.59a1.83,1.83,0,0,0-.24-1.08.83.83,0,0,0-.71-.3.86.86,0,0,0-.68.29,1.5,1.5,0,0,0-.27,1,1.92,1.92,0,0,0,.15.89,1.4,1.4,0,0,0,.69.47l1.19.49a2.25,2.25,0,0,1,1.21,1A4.21,4.21,0,0,1,135.47,47.55Z"/><path class="bf64524b-1b21-475c-883a-b7bf1360342a" d="M150.08,43.32a3.59,3.59,0,0,1-.62,2.32,2.41,2.41,0,0,1-2,.74h-.95v4h-1.59V40.23h2.54a2.44,2.44,0,0,1,2,.74A3.65,3.65,0,0,1,150.08,43.32Zm-1.82,1.22a2.47,2.47,0,0,0,.23-1.22,2.53,2.53,0,0,0-.23-1.24.87.87,0,0,0-.83-.41h-.9V45h.9A.87.87,0,0,0,148.26,44.54Z"/><path class="bf64524b-1b21-475c-883a-b7bf1360342a" d="M159.69,50.34H158l-1.32-4.14h-.89v4.14h-1.59V40.23h2.55a2.47,2.47,0,0,1,2,.71,3.42,3.42,0,0,1,.61,2.28,4.43,4.43,0,0,1-.26,1.64,2,2,0,0,1-.92,1Zm-2.11-6a3.38,3.38,0,0,0,0-2.29.78.78,0,0,0-.78-.4h-1v3.09h1A.78.78,0,0,0,157.58,44.36Z"/><path class="bf64524b-1b21-475c-883a-b7bf1360342a" d="M168,50.34h-4.25V40.23H168v1.44h-2.66v2.87h2.29V46h-2.29v2.94H168Zm-.43-12.76-1.23,2h-1.05l1-2Z"/><path class="bf64524b-1b21-475c-883a-b7bf1360342a" d="M177.31,43.32a3.6,3.6,0,0,1-.61,2.32,2.44,2.44,0,0,1-2,.74h-1v4h-1.59V40.23h2.55a2.47,2.47,0,0,1,2,.74A3.65,3.65,0,0,1,177.31,43.32Zm-1.81,1.22a2.6,2.6,0,0,0,.22-1.22,2.67,2.67,0,0,0-.22-1.24.88.88,0,0,0-.84-.41h-.9V45h.9A.88.88,0,0,0,175.5,44.54Z"/><path class="bf64524b-1b21-475c-883a-b7bf1360342a" d="M186.46,50.34H184.8l-.41-2H182l-.39,2H180l2.48-10.11H184Zm-2.37-3.43-.87-4.23-.86,4.23Z"/><path class="bf64524b-1b21-475c-883a-b7bf1360342a" d="M195.63,50.34H194l-1.32-4.14h-.9v4.14h-1.59V40.23h2.56a2.47,2.47,0,0,1,2,.71,3.48,3.48,0,0,1,.6,2.28,4.24,4.24,0,0,1-.26,1.64,2,2,0,0,1-.91,1Zm-2.12-6a3.38,3.38,0,0,0,0-2.29.78.78,0,0,0-.78-.4h-1v3.09h1A.78.78,0,0,0,193.51,44.36Z"/><path class="bf64524b-1b21-475c-883a-b7bf1360342a" d="M205.43,50.34h-1.67l-.41-2H201l-.4,2h-1.67l2.48-10.11H203Zm-2.38-3.43-.86-4.23-.87,4.23Z"/><path class="bf64524b-1b21-475c-883a-b7bf1360342a" d="M213,41.67h-1.7v8.67H209.7V41.67H208V40.23h5Z"/><path class="bf64524b-1b21-475c-883a-b7bf1360342a" d="M221.77,42.43a23.31,23.31,0,0,1,.13,2.86,23.43,23.43,0,0,1-.13,2.86,2.79,2.79,0,0,1-.61,1.44,2.64,2.64,0,0,1-3.92,0,2.94,2.94,0,0,1-.6-1.46,20.76,20.76,0,0,1-.14-2.84,20.93,20.93,0,0,1,.14-2.85,2.94,2.94,0,0,1,.6-1.45,2.64,2.64,0,0,1,3.92,0A2.79,2.79,0,0,1,221.77,42.43Zm-1.53,5.12c0-.49.07-1.25.07-2.26s0-1.77-.07-2.27a2.51,2.51,0,0,0-.27-1.08.84.84,0,0,0-.77-.39.82.82,0,0,0-.75.39,8.64,8.64,0,0,0-.36,3.35,8.68,8.68,0,0,0,.36,3.35.83.83,0,0,0,.75.38.85.85,0,0,0,.77-.38A2.56,2.56,0,0,0,220.24,47.55Z"/><path class="bf64524b-1b21-475c-883a-b7bf1360342a" d="M227.69,50.34H226.1V40.23h1.59Z"/><path class="bf64524b-1b21-475c-883a-b7bf1360342a" d="M237.63,50.34H236l-1.32-4.14h-.9v4.14h-1.59V40.23h2.56a2.47,2.47,0,0,1,2,.71,3.48,3.48,0,0,1,.6,2.28,4.43,4.43,0,0,1-.26,1.64,2,2,0,0,1-.92,1Zm-2.12-6a3.38,3.38,0,0,0,0-2.29.78.78,0,0,0-.78-.4h-1v3.09h1A.78.78,0,0,0,235.51,44.36Z"/><path class="bf64524b-1b21-475c-883a-b7bf1360342a" d="M246,50.34h-4.24V40.23H246v1.44h-2.65v2.87h2.28V46h-2.28v2.94H246Z"/><path class="bf64524b-1b21-475c-883a-b7bf1360342a" d="M255,47.55a3,3,0,0,1-.65,2.23,2.74,2.74,0,0,1-2,.66,2.65,2.65,0,0,1-2-.66,3,3,0,0,1-.66-2.18h1.59a1.76,1.76,0,0,0,.29,1.14.93.93,0,0,0,.74.27,1,1,0,0,0,.76-.28,1.78,1.78,0,0,0,.27-1.13,2.54,2.54,0,0,0-.17-1.11,1.56,1.56,0,0,0-.78-.55l-1.21-.49a2.22,2.22,0,0,1-1.09-.86,3.47,3.47,0,0,1-.31-1.69,2.72,2.72,0,0,1,.82-2.14,2.89,2.89,0,0,1,3.55,0,3,3,0,0,1,.71,2.2h-1.59a1.83,1.83,0,0,0-.24-1.08.83.83,0,0,0-.71-.3.88.88,0,0,0-.68.29,1.5,1.5,0,0,0-.27,1,1.92,1.92,0,0,0,.15.89,1.45,1.45,0,0,0,.69.47l1.19.49a2.21,2.21,0,0,1,1.21,1A4.07,4.07,0,0,1,255,47.55Z"/><path class="bf64524b-1b21-475c-883a-b7bf1360342a" d="M81.08,66.57,80.57,64H78.06l-.52,2.55H76.17L78.7,55.75H80l2.51,10.82Zm-1.76-8.71-1,5h2Z"/><path class="bf64524b-1b21-475c-883a-b7bf1360342a" d="M88.3,66a2.53,2.53,0,0,1-1.81.71,2.49,2.49,0,0,1-1.8-.71,2.58,2.58,0,0,1-.7-1.87V55.75H85.3v8.44a1.2,1.2,0,0,0,1.19,1.33,1.21,1.21,0,0,0,1.2-1.33V55.75H89v8.36A2.58,2.58,0,0,1,88.3,66Z"/><path class="bf64524b-1b21-475c-883a-b7bf1360342a" d="M94.92,66.57,93.5,62.29l-1.4,4.28H90.67L92.74,61l-1.9-5.2h1.43l1.23,4,1.25-4h1.43l-2,5.2,2.12,5.62Z"/><path class="bf64524b-1b21-475c-883a-b7bf1360342a" d="M103.91,66.69a2.4,2.4,0,0,1-1.86-.79c-.69-.77-.79-1.74-.79-4.74s.1-4,.79-4.74a2.59,2.59,0,0,1,3.61-.13,3,3,0,0,1,.74,2.13h-1.29c0-.73-.2-1.62-1.2-1.62a1.05,1.05,0,0,0-.9.41c-.38.51-.44,1.38-.44,3.95s.06,3.44.44,4a1.05,1.05,0,0,0,.9.41c.76,0,1.2-.62,1.2-1.5V61.84h-1.2V60.76h2.51V64A2.44,2.44,0,0,1,103.91,66.69Z"/><path class="bf64524b-1b21-475c-883a-b7bf1360342a" d="M112.66,66.57l-1.49-4.65H110v4.65h-1.31V55.75h2.45c1.64,0,2.55.71,2.55,3.08,0,1.51-.36,2.39-1.31,2.83L114,66.57Zm-1.51-9.65H110v3.84h1.15c1,0,1.23-.77,1.23-1.93S112.16,56.92,111.15,56.92Z"/><path class="bf64524b-1b21-475c-883a-b7bf1360342a" d="M120.19,66.57,119.67,64h-2.51l-.51,2.55h-1.37l2.52-10.82h1.27l2.5,10.82Zm-1.76-8.71-1,5h2Z"/><path class="bf64524b-1b21-475c-883a-b7bf1360342a" d="M127.3,66.57l-2.8-7.4v7.4h-1.31V55.75h1.22l2.77,7.4v-7.4h1.3V66.57Z"/><path class="bf64524b-1b21-475c-883a-b7bf1360342a" d="M135.36,65.81a2.34,2.34,0,0,1-1.85.76H131V55.75h2.5a2.34,2.34,0,0,1,1.85.76c.7.74.78,1.71.78,4.65S136.06,65.07,135.36,65.81Zm-1-8.48a1.12,1.12,0,0,0-.93-.41h-1.14V65.4h1.14a1.12,1.12,0,0,0,.93-.41c.41-.5.44-1.34.44-3.83S134.8,57.83,134.39,57.33Z"/><path class="bf64524b-1b21-475c-883a-b7bf1360342a" d="M138.39,66.57V55.75h4.19v1.17H139.7v3.63h2.48v1.17H139.7V65.4h2.88v1.17Z"/><path class="bf64524b-1b21-475c-883a-b7bf1360342a" d="M148.83,66a2.71,2.71,0,0,1-1.92.65A2.63,2.63,0,0,1,145,66a2.93,2.93,0,0,1-.67-2.29h1.31a1.88,1.88,0,0,0,.37,1.42,1.16,1.16,0,0,0,.89.33,1.18,1.18,0,0,0,.93-.35,2,2,0,0,0,.35-1.44c0-1.25-.18-1.63-1.06-2l-1.23-.51c-1.12-.45-1.48-1.06-1.48-2.7a2.91,2.91,0,0,1,.82-2.22,2.44,2.44,0,0,1,1.72-.63,2.46,2.46,0,0,1,1.79.63,2.84,2.84,0,0,1,.72,2.22h-1.31a1.94,1.94,0,0,0-.33-1.31,1.09,1.09,0,0,0-.89-.36,1.06,1.06,0,0,0-.83.33,1.89,1.89,0,0,0-.38,1.29c0,1.07.17,1.39,1,1.75l1.22.5c1.23.5,1.52,1.27,1.52,3A3.08,3.08,0,0,1,148.83,66Z"/><path class="bf64524b-1b21-475c-883a-b7bf1360342a" d="M155.1,66.57V55.75h4.18v1.17h-2.87v3.63h2.48v1.17h-2.48V65.4h2.87v1.17Z"/><path class="bf64524b-1b21-475c-883a-b7bf1360342a" d="M165.51,66.1a2.4,2.4,0,0,1-1.68.59A2.3,2.3,0,0,1,162,65.9c-.72-.82-.79-1.74-.79-4.74s.07-3.92.79-4.74a2.58,2.58,0,0,1,3.57-.16,3.08,3.08,0,0,1,.78,2.15H165a2.12,2.12,0,0,0-.35-1.23,1,1,0,0,0-.86-.38,1,1,0,0,0-.89.41c-.38.51-.44,1.38-.44,3.95s.06,3.44.44,4a1,1,0,0,0,.89.41,1,1,0,0,0,.86-.38A2.26,2.26,0,0,0,165,63.9h1.29A3,3,0,0,1,165.51,66.1Z"/><path class="bf64524b-1b21-475c-883a-b7bf1360342a" d="M172.77,65.9a2.35,2.35,0,0,1-1.86.79,2.31,2.31,0,0,1-1.85-.79c-.7-.77-.8-1.74-.8-4.74s.1-4,.8-4.74a2.32,2.32,0,0,1,1.85-.8,2.35,2.35,0,0,1,1.86.8c.7.77.79,1.74.79,4.74S173.47,65.13,172.77,65.9Zm-1-8.69a1,1,0,0,0-.88-.41,1.05,1.05,0,0,0-.9.41c-.38.51-.44,1.38-.44,3.95s.06,3.44.44,4a1.05,1.05,0,0,0,.9.41,1,1,0,0,0,.88-.41c.38-.51.46-1.38.46-4S172.17,57.72,171.79,57.21Z"/><path class="bf64524b-1b21-475c-883a-b7bf1360342a" d="M175.81,66.57V55.75h1.31V65.4H180v1.17Z"/><path class="bf64524b-1b21-475c-883a-b7bf1360342a" d="M181.87,66.57V55.75h4.18v1.17h-2.87v3.63h2.47v1.17h-2.47V65.4h2.87v1.17Z"/><path class="bf64524b-1b21-475c-883a-b7bf1360342a" d="M192.31,66a2.73,2.73,0,0,1-1.92.65,2.6,2.6,0,0,1-1.9-.65,2.93,2.93,0,0,1-.67-2.29h1.31a1.88,1.88,0,0,0,.36,1.42,1.4,1.4,0,0,0,1.83,0,2,2,0,0,0,.35-1.44c0-1.25-.19-1.63-1.07-2l-1.23-.51c-1.11-.45-1.47-1.06-1.47-2.7a2.91,2.91,0,0,1,.82-2.22,2.42,2.42,0,0,1,1.72-.63,2.46,2.46,0,0,1,1.79.63,2.83,2.83,0,0,1,.71,2.22h-1.3a1.94,1.94,0,0,0-.34-1.31,1.05,1.05,0,0,0-.88-.36,1.1,1.1,0,0,0-.84.33,1.89,1.89,0,0,0-.38,1.29c0,1.07.17,1.39,1,1.75l1.21.5c1.24.5,1.53,1.27,1.53,3A3.12,3.12,0,0,1,192.31,66Z"/><path class="bdd7101b-1c89-41a1-be84-57fe3e80f779" d="M202.59,66.57,202.08,64h-2.51l-.52,2.55h-1.37l2.52-10.82h1.27L204,66.57Zm-1.76-8.71-1,5h2Z"/><path class="bdd7101b-1c89-41a1-be84-57fe3e80f779" d="M209.91,65.92a2.52,2.52,0,0,1-2,.65h-2.33V55.75h2.33a2.51,2.51,0,0,1,2,.65,2.75,2.75,0,0,1,.63,2.19,2.46,2.46,0,0,1-.63,1.93,2.11,2.11,0,0,1-.61.41,2,2,0,0,1,.67.4,2.84,2.84,0,0,1,.65,2.2A3,3,0,0,1,209.91,65.92Zm-2-9h-1v3.46h1c.93,0,1.37-.5,1.37-1.73S208.8,56.92,207.86,56.92Zm0,4.59h-.94V65.4h.94c1,0,1.46-.45,1.46-1.94S208.82,61.51,207.84,61.51Z"/><path class="bdd7101b-1c89-41a1-be84-57fe3e80f779" d="M217.12,66a2.51,2.51,0,0,1-1.81.71,2.47,2.47,0,0,1-1.79-.71,2.58,2.58,0,0,1-.7-1.87V55.75h1.31v8.44a1.2,1.2,0,0,0,1.18,1.33,1.21,1.21,0,0,0,1.21-1.33V55.75h1.3v8.36A2.58,2.58,0,0,1,217.12,66Z"/><path class="bdd7101b-1c89-41a1-be84-57fe3e80f779" d="M220.25,66.57V55.75h1.3V65.4h2.88v1.17Z"/><path class="bdd7101b-1c89-41a1-be84-57fe3e80f779" d="M230.06,66.1a2.4,2.4,0,0,1-1.68.59,2.3,2.3,0,0,1-1.85-.79c-.72-.82-.79-1.74-.79-4.74s.07-3.92.79-4.74a2.58,2.58,0,0,1,3.57-.16,3,3,0,0,1,.78,2.15h-1.29a2.05,2.05,0,0,0-.35-1.23,1,1,0,0,0-.86-.38,1,1,0,0,0-.89.41c-.38.51-.44,1.38-.44,3.95s.06,3.44.44,4a1,1,0,0,0,.89.41,1,1,0,0,0,.86-.38,2.26,2.26,0,0,0,.35-1.24h1.29A3,3,0,0,1,230.06,66.1Z"/><path class="bdd7101b-1c89-41a1-be84-57fe3e80f779" d="M237.09,66.57,236.57,64h-2.51l-.52,2.55h-1.36l2.52-10.82H236l2.51,10.82Zm-1.77-8.71-1,5h2Z"/><path class="bdd7101b-1c89-41a1-be84-57fe3e80f779" d="M244.26,66a2.71,2.71,0,0,1-1.92.65,2.6,2.6,0,0,1-1.9-.65,2.93,2.93,0,0,1-.67-2.29h1.31a1.88,1.88,0,0,0,.36,1.42,1.2,1.2,0,0,0,.9.33,1.18,1.18,0,0,0,.93-.35,2,2,0,0,0,.35-1.44c0-1.25-.18-1.63-1.07-2l-1.23-.51c-1.11-.45-1.47-1.06-1.47-2.7a2.91,2.91,0,0,1,.82-2.22,2.42,2.42,0,0,1,1.72-.63,2.46,2.46,0,0,1,1.79.63,2.84,2.84,0,0,1,.72,2.22h-1.31a1.89,1.89,0,0,0-.34-1.31,1.05,1.05,0,0,0-.88-.36,1.1,1.1,0,0,0-.84.33,2,2,0,0,0-.38,1.29c0,1.07.17,1.39,1,1.75l1.21.5c1.24.5,1.53,1.27,1.53,3A3.12,3.12,0,0,1,244.26,66Z"/><path class="bdd7101b-1c89-41a1-be84-57fe3e80f779" d="M247.12,66.57V55.75h1.31V66.57Z"/><path class="bdd7101b-1c89-41a1-be84-57fe3e80f779" d="M255,66a2.7,2.7,0,0,1-1.91.65,2.6,2.6,0,0,1-1.9-.65,2.89,2.89,0,0,1-.67-2.29h1.31a1.88,1.88,0,0,0,.36,1.42,1.4,1.4,0,0,0,1.83,0,2,2,0,0,0,.35-1.44c0-1.25-.19-1.63-1.07-2l-1.23-.51c-1.11-.45-1.48-1.06-1.48-2.7a2.91,2.91,0,0,1,.83-2.22,2.41,2.41,0,0,1,1.71-.63,2.49,2.49,0,0,1,1.8.63,2.83,2.83,0,0,1,.71,2.22h-1.3a1.94,1.94,0,0,0-.34-1.31,1.05,1.05,0,0,0-.88-.36,1.1,1.1,0,0,0-.84.33,1.89,1.89,0,0,0-.38,1.29c0,1.07.17,1.39,1,1.75l1.21.5c1.23.5,1.52,1.27,1.52,3A3.08,3.08,0,0,1,255,66Z"/><path class="bdd7101b-1c89-41a1-be84-57fe3e80f779" d="M71.61,21.66V10.31H8.4V21.66h7.74v4.22H29.29V21.66H50.71V55.2A12.13,12.13,0,0,0,62.84,67.33h8.77V55.2H65.45a1.58,1.58,0,0,1-1.58-1.58v-32Z"/><path class="bdd7101b-1c89-41a1-be84-57fe3e80f779" d="M18.51,29.71a.92.92,0,0,0,.37-.36,2,2,0,0,0,.16-1A1.72,1.72,0,0,0,18.67,27a1.29,1.29,0,0,0-.91-.32,1.34,1.34,0,0,0-.91.33,1.26,1.26,0,0,0-.35,1v.41h.74v-.45c0-.41.22-.62.52-.62a.48.48,0,0,1,.38.15c.12.14.16.35.16.89s0,.74-.18.9a.44.44,0,0,1-.36.14h-.35V30h.35a.52.52,0,0,1,.4.17c.15.17.2.34.2,1.12s-.07.88-.2,1a.48.48,0,0,1-.4.17.57.57,0,0,1-.57-.64v-.43h-.74v.4a1.19,1.19,0,0,0,.38,1,1.29,1.29,0,0,0,.93.34,1.38,1.38,0,0,0,.95-.34c.33-.31.39-.68.39-1.51a2.15,2.15,0,0,0-.21-1.25A1.29,1.29,0,0,0,18.51,29.71Z"/><rect class="bdd7101b-1c89-41a1-be84-57fe3e80f779" x="20.41" y="32.21" width="0.91" height="0.88"/><polygon class="bdd7101b-1c89-41a1-be84-57fe3e80f779" points="22.8 27.51 22.8 28.35 23.76 27.59 23.76 33.09 24.5 33.09 24.5 26.74 23.76 26.74 22.8 27.51"/><polygon class="bdd7101b-1c89-41a1-be84-57fe3e80f779" points="28.8 33.09 28.8 32.05 29.26 32.05 29.26 31.4 28.8 31.4 28.8 29.94 28.06 29.94 28.06 31.4 27.05 31.4 28.67 26.74 27.95 26.74 26.29 31.4 26.29 32.05 28.06 32.05 28.06 33.09 28.8 33.09"/><polygon class="bdd7101b-1c89-41a1-be84-57fe3e80f779" points="17.77 38.68 17.77 34.03 17.22 34.03 16.52 34.59 16.52 35.2 17.22 34.65 17.22 38.68 17.77 38.68"/><path class="bdd7101b-1c89-41a1-be84-57fe3e80f779" d="M19.12,37.5v.26a.92.92,0,0,0,.28.73,1,1,0,0,0,.69.24,1,1,0,0,0,.69-.27c.27-.3.29-.61.29-1.27s-.06-1.08-.23-1.28a.73.73,0,0,0-.6-.27.7.7,0,0,0-.35.09.73.73,0,0,0-.24.22V34.5H21V34H19.15v2.71h.52v-.16a.42.42,0,0,1,.42-.47.34.34,0,0,1,.3.16c.1.14.13.34.13.92s0,.8-.13.93a.39.39,0,0,1-.3.13c-.24,0-.42-.15-.42-.49V37.5Z"/><path class="bdd7101b-1c89-41a1-be84-57fe3e80f779" d="M22.79,38.68l.81-2.09a3.11,3.11,0,0,0,.2-1.17c0-.63-.05-.88-.25-1.13a1,1,0,0,0-1.47,0c-.18.21-.24.47-.24,1.13s.06,1,.24,1.16a.74.74,0,0,0,.59.27.6.6,0,0,0,.34-.11l-.78,1.94Zm0-2.28a.36.36,0,0,1-.3-.12c-.12-.14-.14-.4-.14-.86s0-.71.14-.84a.37.37,0,0,1,.3-.13.43.43,0,0,1,.3.13c.12.13.13.39.13.84s0,.72-.13.86A.42.42,0,0,1,22.82,36.4Z"/><path class="bdd7101b-1c89-41a1-be84-57fe3e80f779" d="M24.59,38.23v.45h1.94V38.2H25.18L26.25,36a2.52,2.52,0,0,0,.28-1.05.93.93,0,0,0-.29-.73,1,1,0,0,0-.67-.24,1.06,1.06,0,0,0-.69.25.91.91,0,0,0-.27.71v.31h.54v-.32a.42.42,0,0,1,.42-.47.41.41,0,0,1,.41.47,2.17,2.17,0,0,1-.21.9Z"/><path class="bdd7101b-1c89-41a1-be84-57fe3e80f779" d="M28.43,35.86a.55.55,0,0,0-.34.11L28.86,34H28.3l-.81,2.09a3.08,3.08,0,0,0-.19,1.17c0,.62,0,.88.24,1.13a.91.91,0,0,0,.73.31,1,1,0,0,0,.75-.31c.18-.22.24-.47.24-1.13s-.07-1-.25-1.17A.74.74,0,0,0,28.43,35.86Zm.15,2.27a.41.41,0,0,1-.3.12.39.39,0,0,1-.3-.12c-.12-.14-.14-.39-.14-.85s0-.72.14-.85a.41.41,0,0,1,.6,0,1.5,1.5,0,0,1,.13.85C28.71,37.74,28.7,38,28.58,38.13Z"/><path class="bdd7101b-1c89-41a1-be84-57fe3e80f779" d="M16.39,43.22v.26a.92.92,0,0,0,.28.73,1,1,0,0,0,.69.24,1,1,0,0,0,.69-.27c.26-.3.29-.61.29-1.27s-.06-1.08-.23-1.28a.74.74,0,0,0-.6-.27.7.7,0,0,0-.35.09.73.73,0,0,0-.24.22V40.22h1.36v-.47H16.42v2.71h.51V42.3a.43.43,0,0,1,.43-.47.34.34,0,0,1,.3.16c.1.14.13.34.13.92s0,.8-.13.93a.41.41,0,0,1-.3.13c-.24,0-.43-.15-.43-.49v-.26Z"/><path class="bdd7101b-1c89-41a1-be84-57fe3e80f779" d="M19.11,43.19v.29a.88.88,0,0,0,.27.72,1,1,0,0,0,.69.25,1,1,0,0,0,.69-.25c.24-.23.29-.5.29-1.11a1.62,1.62,0,0,0-.15-.91.88.88,0,0,0-.28-.26.68.68,0,0,0,.27-.26A1.5,1.5,0,0,0,21,40.9a1.26,1.26,0,0,0-.27-1,1,1,0,0,0-.67-.24,1,1,0,0,0-.67.25.89.89,0,0,0-.26.71V41h.55v-.33c0-.31.16-.46.38-.46a.34.34,0,0,1,.27.11c.09.11.13.26.13.65s0,.55-.14.67a.34.34,0,0,1-.26.09h-.26v.46h.26a.35.35,0,0,1,.29.13c.11.12.15.24.15.81s-.05.65-.15.76a.36.36,0,0,1-.29.12.41.41,0,0,1-.42-.47v-.31Z"/><path class="bdd7101b-1c89-41a1-be84-57fe3e80f779" d="M23,41.36a.7.7,0,0,0-.35.09.73.73,0,0,0-.24.22V40.22h1.36v-.47H21.88v2.71h.51V42.3a.43.43,0,0,1,.43-.47.34.34,0,0,1,.3.16c.1.14.13.34.13.92s0,.8-.13.93a.41.41,0,0,1-.3.13c-.24,0-.43-.15-.43-.49v-.26h-.54v.26a.92.92,0,0,0,.28.73,1,1,0,0,0,.69.24,1,1,0,0,0,.69-.27c.27-.3.29-.61.29-1.27s-.06-1.08-.23-1.28A.73.73,0,0,0,23,41.36Z"/><path class="bdd7101b-1c89-41a1-be84-57fe3e80f779" d="M24.57,43.1c0,.57,0,.85.29,1.1a1,1,0,0,0,.69.25,1,1,0,0,0,.69-.25c.25-.25.29-.53.29-1.1a1.52,1.52,0,0,0-.16-.9.88.88,0,0,0-.28-.26.78.78,0,0,0,.27-.27,1.44,1.44,0,0,0,.13-.75,1.24,1.24,0,0,0-.28-1,1,1,0,0,0-1.33,0,1.24,1.24,0,0,0-.28,1,1.33,1.33,0,0,0,.14.75.75.75,0,0,0,.26.27.88.88,0,0,0-.28.26A1.54,1.54,0,0,0,24.57,43.1Zm.72-2.83a.33.33,0,0,1,.26-.1.35.35,0,0,1,.26.1c.1.1.14.23.14.67s0,.58-.14.68a.35.35,0,0,1-.26.09.32.32,0,0,1-.26-.09c-.1-.1-.14-.24-.14-.68S25.19,40.37,25.29,40.27Zm0,2a.38.38,0,0,1,.3-.13.35.35,0,0,1,.29.13c.11.13.14.29.14.79s0,.64-.14.77a.37.37,0,0,1-.29.12.39.39,0,0,1-.3-.12c-.1-.13-.14-.31-.14-.77S25.14,42.42,25.25,42.29Z"/><path class="bdd7101b-1c89-41a1-be84-57fe3e80f779" d="M28.28,39.69a.89.89,0,0,0-.74.32c-.18.21-.24.47-.24,1.13s.06,1,.24,1.16a.74.74,0,0,0,.59.27.66.66,0,0,0,.35-.11l-.79,1.94h.56l.81-2.09a3.11,3.11,0,0,0,.2-1.17c0-.63-.05-.88-.25-1.13A.89.89,0,0,0,28.28,39.69Zm.3,2.31a.42.42,0,0,1-.3.12A.36.36,0,0,1,28,42c-.12-.14-.14-.4-.14-.86s0-.71.14-.84a.37.37,0,0,1,.3-.13.43.43,0,0,1,.3.13c.12.13.13.39.13.84S28.7,41.86,28.58,42Z"/><polygon class="bdd7101b-1c89-41a1-be84-57fe3e80f779" points="16.34 46.63 16.87 46.63 16.87 45.94 17.8 45.94 16.54 50.12 17.09 50.12 18.36 45.91 18.36 45.47 16.34 45.47 16.34 46.63"/><path class="bdd7101b-1c89-41a1-be84-57fe3e80f779" d="M19.35,48a.74.74,0,0,0,.59.27.6.6,0,0,0,.34-.11l-.78,1.94h.56L20.87,48a3.11,3.11,0,0,0,.2-1.17c0-.63-.05-.88-.25-1.13a1,1,0,0,0-1.47,0c-.18.21-.24.47-.24,1.13S19.17,47.82,19.35,48Zm.44-2a.39.39,0,0,1,.3-.12.47.47,0,0,1,.3.12c.12.14.13.4.13.85s0,.72-.13.86a.42.42,0,0,1-.3.12.36.36,0,0,1-.3-.12c-.12-.14-.14-.4-.14-.86S19.67,46.15,19.79,46Z"/><path class="bdd7101b-1c89-41a1-be84-57fe3e80f779" d="M21.84,48.91v.29a.88.88,0,0,0,.27.72,1,1,0,0,0,.69.25,1,1,0,0,0,.69-.25c.24-.23.29-.5.29-1.11a1.62,1.62,0,0,0-.15-.91.88.88,0,0,0-.28-.26.68.68,0,0,0,.27-.26,1.5,1.5,0,0,0,.12-.76,1.26,1.26,0,0,0-.27-1,1,1,0,0,0-.67-.24,1,1,0,0,0-.67.25.89.89,0,0,0-.26.71v.31h.54v-.33c0-.31.17-.46.39-.46a.34.34,0,0,1,.27.11c.09.11.13.26.13.65s0,.55-.14.67a.34.34,0,0,1-.26.09h-.26v.46h.26a.38.38,0,0,1,.3.13c.1.12.14.24.14.81s0,.65-.15.76a.36.36,0,0,1-.29.12.41.41,0,0,1-.42-.47v-.31Z"/><path class="bdd7101b-1c89-41a1-be84-57fe3e80f779" d="M26.53,46.38a.93.93,0,0,0-.29-.73,1,1,0,0,0-.67-.24,1.06,1.06,0,0,0-.69.25.9.9,0,0,0-.27.71v.31h.54v-.32a.42.42,0,0,1,.42-.47.41.41,0,0,1,.41.47,2.21,2.21,0,0,1-.21.9l-1.18,2.41v.45h1.94v-.48H25.18l1.07-2.21A2.52,2.52,0,0,0,26.53,46.38Z"/><path class="bdd7101b-1c89-41a1-be84-57fe3e80f779" d="M27.3,48.91v.29a.88.88,0,0,0,.27.72,1,1,0,0,0,.69.25,1,1,0,0,0,.69-.25c.25-.23.29-.5.29-1.11a1.54,1.54,0,0,0-.15-.91.88.88,0,0,0-.28-.26.68.68,0,0,0,.27-.26,1.5,1.5,0,0,0,.12-.76,1.26,1.26,0,0,0-.27-1,1,1,0,0,0-.67-.24,1,1,0,0,0-.67.25.93.93,0,0,0-.26.71v.31h.55v-.33c0-.31.16-.46.38-.46a.38.38,0,0,1,.28.11,1.05,1.05,0,0,1,.12.65c0,.39,0,.55-.14.67a.34.34,0,0,1-.26.09H28v.46h.26a.38.38,0,0,1,.3.13c.1.12.14.24.14.81s-.05.65-.15.76a.35.35,0,0,1-.29.12.41.41,0,0,1-.42-.47v-.31Z"/><path class="bdd7101b-1c89-41a1-be84-57fe3e80f779" d="M16.38,54.54c0,.57,0,.85.29,1.09a1,1,0,0,0,.69.26,1,1,0,0,0,.69-.26c.24-.24.28-.52.28-1.09a1.54,1.54,0,0,0-.15-.9.88.88,0,0,0-.28-.26.78.78,0,0,0,.27-.27,1.44,1.44,0,0,0,.13-.75,1.23,1.23,0,0,0-.28-1,1,1,0,0,0-1.33,0,1.23,1.23,0,0,0-.28,1,1.44,1.44,0,0,0,.13.75.78.78,0,0,0,.27.27.88.88,0,0,0-.28.26A1.54,1.54,0,0,0,16.38,54.54Zm.72-2.83a.33.33,0,0,1,.26-.1.32.32,0,0,1,.25.1c.11.1.15.23.15.67s0,.58-.15.68a.31.31,0,0,1-.25.09.32.32,0,0,1-.26-.09c-.1-.1-.15-.24-.15-.68S17,51.81,17.1,51.71Zm0,2a.38.38,0,0,1,.3-.13.36.36,0,0,1,.29.13c.11.13.14.29.14.79s0,.64-.14.77a.38.38,0,0,1-.29.12.39.39,0,0,1-.3-.12c-.11-.13-.14-.31-.14-.77S17,53.86,17.06,53.73Z"/><polygon class="bdd7101b-1c89-41a1-be84-57fe3e80f779" points="20.84 53.53 20.3 53.53 20.3 54.6 19.56 54.6 20.75 51.19 20.22 51.19 19 54.6 19 55.07 20.3 55.07 20.3 55.84 20.84 55.84 20.84 55.07 21.18 55.07 21.18 54.6 20.84 54.6 20.84 53.53"/><path class="bdd7101b-1c89-41a1-be84-57fe3e80f779" d="M23,53a.54.54,0,0,0-.35.11l.78-1.94h-.56L22,53.28a3.08,3.08,0,0,0-.19,1.17c0,.62,0,.88.24,1.13a.91.91,0,0,0,.73.31,1,1,0,0,0,.75-.31,1.67,1.67,0,0,0,.24-1.13c0-.75-.07-1-.25-1.17A.74.74,0,0,0,23,53Zm.15,2.27a.41.41,0,0,1-.3.12.39.39,0,0,1-.3-.12c-.12-.14-.14-.39-.14-.85s0-.72.14-.86a.44.44,0,0,1,.6,0,1.56,1.56,0,0,1,.13.86C23.25,54.9,23.24,55.15,23.12,55.29Z"/><path class="bdd7101b-1c89-41a1-be84-57fe3e80f779" d="M26.53,52.1a.93.93,0,0,0-.29-.73,1,1,0,0,0-.67-.24,1.06,1.06,0,0,0-.69.25.9.9,0,0,0-.27.71v.31h.54v-.32a.42.42,0,0,1,.42-.47.41.41,0,0,1,.41.47,2.21,2.21,0,0,1-.21.9l-1.18,2.41v.45h1.94v-.48H25.18l1.07-2.21A2.52,2.52,0,0,0,26.53,52.1Z"/><path class="bdd7101b-1c89-41a1-be84-57fe3e80f779" d="M28.43,53a.5.5,0,0,0-.34.11l.77-1.94H28.3l-.81,2.09a3.08,3.08,0,0,0-.19,1.17c0,.62,0,.88.24,1.13a.91.91,0,0,0,.73.31,1,1,0,0,0,.75-.31c.18-.22.24-.47.24-1.13s-.07-1-.25-1.17A.74.74,0,0,0,28.43,53Zm.15,2.27a.41.41,0,0,1-.3.12.39.39,0,0,1-.3-.12c-.12-.14-.14-.39-.14-.85s0-.72.14-.86a.44.44,0,0,1,.6,0,1.56,1.56,0,0,1,.13.86C28.71,54.9,28.7,55.15,28.58,55.29Z"/><polygon class="bdd7101b-1c89-41a1-be84-57fe3e80f779" points="18.11 59.25 17.57 59.25 17.57 60.32 16.83 60.32 18.02 56.91 17.49 56.91 16.27 60.32 16.27 60.79 17.57 60.79 17.57 61.56 18.11 61.56 18.11 60.79 18.45 60.79 18.45 60.32 18.11 60.32 18.11 59.25"/><path class="bdd7101b-1c89-41a1-be84-57fe3e80f779" d="M19.11,60.35v.29a.89.89,0,0,0,.27.72,1,1,0,0,0,.69.25,1,1,0,0,0,.69-.25c.24-.23.29-.5.29-1.11a1.6,1.6,0,0,0-.15-.91.88.88,0,0,0-.28-.26.68.68,0,0,0,.27-.26,1.5,1.5,0,0,0,.12-.76,1.26,1.26,0,0,0-.27-1,1,1,0,0,0-.67-.24,1,1,0,0,0-.67.25.89.89,0,0,0-.26.71v.3h.55v-.32c0-.31.16-.46.38-.46a.34.34,0,0,1,.27.11c.09.11.13.26.13.65s0,.55-.14.66a.31.31,0,0,1-.26.1h-.26v.46h.26a.37.37,0,0,1,.29.12c.11.13.15.25.15.82s-.05.65-.15.76a.36.36,0,0,1-.29.12.41.41,0,0,1-.42-.47v-.31Z"/><path class="bdd7101b-1c89-41a1-be84-57fe3e80f779" d="M21.84,60.35v.29a.89.89,0,0,0,.27.72,1,1,0,0,0,.69.25,1,1,0,0,0,.69-.25c.24-.23.29-.5.29-1.11a1.6,1.6,0,0,0-.15-.91.88.88,0,0,0-.28-.26.68.68,0,0,0,.27-.26,1.5,1.5,0,0,0,.12-.76,1.26,1.26,0,0,0-.27-1,1,1,0,0,0-.67-.24,1,1,0,0,0-.67.25.89.89,0,0,0-.26.71v.3h.54v-.32c0-.31.17-.46.39-.46a.34.34,0,0,1,.27.11c.09.11.13.26.13.65s0,.55-.14.66a.31.31,0,0,1-.26.1h-.26v.46h.26a.41.41,0,0,1,.3.12c.1.13.14.25.14.82s0,.65-.15.76a.36.36,0,0,1-.29.12.41.41,0,0,1-.42-.47v-.31Z"/><path class="bdd7101b-1c89-41a1-be84-57fe3e80f779" d="M24.86,61.35a1,1,0,0,0,.69.26,1,1,0,0,0,.69-.26c.25-.24.29-.52.29-1.09a1.52,1.52,0,0,0-.16-.9.88.88,0,0,0-.28-.26.78.78,0,0,0,.27-.27,1.44,1.44,0,0,0,.13-.75,1.23,1.23,0,0,0-.28-1,1,1,0,0,0-1.33,0,1.23,1.23,0,0,0-.28,1,1.33,1.33,0,0,0,.14.75.75.75,0,0,0,.26.27.88.88,0,0,0-.28.26,1.54,1.54,0,0,0-.15.9C24.57,60.83,24.61,61.11,24.86,61.35Zm.43-3.92a.33.33,0,0,1,.26-.1.35.35,0,0,1,.26.1c.1.1.14.23.14.67s0,.58-.14.68a.35.35,0,0,1-.26.09.32.32,0,0,1-.26-.09c-.1-.1-.14-.24-.14-.68S25.19,57.53,25.29,57.43Zm0,2a.38.38,0,0,1,.3-.13.35.35,0,0,1,.29.13c.11.13.14.28.14.79s0,.64-.14.77a.37.37,0,0,1-.29.12.39.39,0,0,1-.3-.12c-.1-.13-.14-.31-.14-.77S25.14,59.58,25.25,59.45Z"/><path class="bdd7101b-1c89-41a1-be84-57fe3e80f779" d="M28.81,59.08a.68.68,0,0,0,.27-.26,1.5,1.5,0,0,0,.12-.76,1.26,1.26,0,0,0-.27-1,1,1,0,0,0-.67-.24,1,1,0,0,0-.67.25.93.93,0,0,0-.26.71v.3h.55v-.32c0-.31.16-.46.38-.46a.38.38,0,0,1,.28.11,1.05,1.05,0,0,1,.12.65c0,.39,0,.55-.14.66a.31.31,0,0,1-.26.1H28v.46h.26a.41.41,0,0,1,.3.12c.1.13.14.25.14.82s-.05.65-.15.76a.35.35,0,0,1-.29.12.41.41,0,0,1-.42-.47v-.31H27.3v.29a.89.89,0,0,0,.27.72,1,1,0,0,0,.69.25,1,1,0,0,0,.69-.25c.25-.23.29-.5.29-1.11a1.52,1.52,0,0,0-.15-.91A.88.88,0,0,0,28.81,59.08Z"/><path class="bdd7101b-1c89-41a1-be84-57fe3e80f779" d="M18.33,63.54a.92.92,0,0,0-.28-.73,1,1,0,0,0-.67-.24,1,1,0,0,0-.69.25.9.9,0,0,0-.27.71v.3H17v-.31a.42.42,0,0,1,.42-.47.41.41,0,0,1,.41.47,2.05,2.05,0,0,1-.22.9L16.4,66.83v.45h1.93V66.8H17l1.07-2.21A2.55,2.55,0,0,0,18.33,63.54Z"/><polygon class="bdd7101b-1c89-41a1-be84-57fe3e80f779" points="19.07 63.79 19.6 63.79 19.6 63.1 20.53 63.1 19.27 67.28 19.82 67.28 21.09 63.06 21.09 62.63 19.07 62.63 19.07 63.79"/><path class="bdd7101b-1c89-41a1-be84-57fe3e80f779" d="M22.82,62.57a.89.89,0,0,0-.74.32c-.18.21-.24.47-.24,1.13s.06,1,.24,1.16a.74.74,0,0,0,.59.27.6.6,0,0,0,.34-.11l-.78,1.94h.56l.81-2.09A3.11,3.11,0,0,0,23.8,64c0-.63-.05-.88-.25-1.13A.89.89,0,0,0,22.82,62.57Zm.3,2.31a.42.42,0,0,1-.3.12.39.39,0,0,1-.3-.12c-.12-.14-.14-.4-.14-.86s0-.71.14-.85a.39.39,0,0,1,.3-.12.47.47,0,0,1,.3.12c.12.14.13.4.13.85S23.24,64.74,23.12,64.88Z"/><path class="bdd7101b-1c89-41a1-be84-57fe3e80f779" d="M25.7,64.24a.71.71,0,0,0-.59.31V63.1h1.36v-.47H24.61v2.71h.52v-.16a.42.42,0,0,1,.42-.47.34.34,0,0,1,.3.16c.1.14.13.34.13.92s0,.79-.13.93a.39.39,0,0,1-.3.13c-.24,0-.42-.15-.42-.49V66.1h-.55v.26a.93.93,0,0,0,.28.73,1.06,1.06,0,0,0,1.38,0c.27-.3.29-.61.29-1.27s-.06-1.08-.23-1.28A.73.73,0,0,0,25.7,64.24Z"/><path class="bdd7101b-1c89-41a1-be84-57fe3e80f779" d="M28.27,62.57a1,1,0,0,0-.68.25.9.9,0,0,0-.27.72v2.82a.9.9,0,0,0,.27.72,1,1,0,0,0,.68.25,1,1,0,0,0,.7-.25.9.9,0,0,0,.27-.72V63.54a.9.9,0,0,0-.27-.72A1,1,0,0,0,28.27,62.57Zm.42,3.81a.41.41,0,0,1-.42.47c-.23,0-.41-.15-.41-.47V63.52a.41.41,0,0,1,.41-.47.42.42,0,0,1,.42.47Z"/></svg>